# AST/ASF file generated using VICON BodyLanguage
# -----------------------------------------------
:version 1.10
:name VICON
:units
  mass 1.0
  length 0.45
  angle deg
:documentation
   .ast/.asf automatically generated from VICON data using
   VICON BodyBuilder and BodyLanguage model FoxedUp or BRILLIANT.MOD
:root
   order TX TY TZ RX RY RZ
   axis XYZ
   position 0 0 0  
   orientation 0 0 0 
:bonedata
  begin
     id 1 
     name lhipjoint
     direction 0.584852 -0.759097 0.285867 
     length 2.43633 
     axis 0 0 0  XYZ
  end
  begin
     id 2 
     name lfemur
     direction 0.34202 -0.939693 0  
     length 7.14704  
     axis 0 0 20  XYZ
    dof rx ry rz
    limits (-160.0 20.0)
           (-70.0 70.0)
           (-60.0 70.0)
  end
  begin
     id 3 
     name ltibia
     direction 0.342022 -0.939692 0   
     length 7.68483   
     axis 0 0 20   XYZ
    dof rx
    limits (-10.0 170.0)
  end
  begin
     id 4 
     name lfoot
     direction 0.0999605 -0.274639 0.956337   
     length 2.40452   
     axis -90 7.62852e-016 20   XYZ
    dof rx rz
    limits (-45.0 90.0)
           (-70.0 20.0)
  end
  begin
     id 5 
     name ltoes
     direction 1.53468e-011 -4.21881e-011 1   
     length 1.19837   
     axis -90 7.62852e-016 20   XYZ
    dof rx
    limits (-90.0 20.0)
  end
  begin
     id 6 
     name rhipjoint
     direction -0.569886 -0.769002 0.289597   
     length 2.40495  
     axis 0 0 0  XYZ 
  end
  begin
     id 7 
     name rfemur
     direction -0.34202 -0.939693 0   
     length 7.45086   
     axis 0 0 -20   XYZ
    dof rx ry rz
    limits (-160.0 20.0)
           (-70.0 70.0)
           (-70.0 60.0)
  end
  begin
     id 8 
     name rtibia
     direction -0.34202 -0.939693 0   
     length 7.76831   
     axis 0 0 -20   XYZ
    dof rx
    limits (-10.0 170.0)
 end
 begin
     id 9 
     name rfoot
     direction -0.0798572 -0.219406 0.97236   
     length 2.35911  
     axis -90 -7.62852e-016 -20   XYZ
    dof rx rz
    limits (-45.0 90.0)
           (-20.0 70.0)
  end
  begin
     id 10 
     name rtoes
     direction -1.53469e-011 -4.21728e-011 1   
     length 1.18261   
     axis -90 -7.62852e-016 -20   XYZ
    dof rx
    limits (-90.0 20.0)
  end
  begin
     id 11 
     name lowerback
     direction 0.0242088 0.999437 0.0232389   
     length 2.1561   
     axis 0 0 0   XYZ
    dof rx ry rz
    limits (-20.0 45.0)
           (-30.0 30.0)
           (-30.0 30.0)
  end
  begin
     id 12 
     name upperback
     direction -0.0356893 0.999013 -0.0264323   
     length 2.14431   
     axis 0 0 0   XYZ
    dof rx ry rz
    limits (-20.0 45.0)
           (-30.0 30.0)
           (-30.0 30.0)
  end
  begin
     id 13 
     name thorax
     direction -0.0472163 0.998194 -0.0371284   
     length 2.16169   
     axis 0 0 0   XYZ
    dof rx ry rz
    limits (-20.0 45.0)
           (-30.0 30.0)
           (-30.0 30.0)
  end
  begin
     id 14 
     name lowerneck
     direction 0.00863244 0.999921 0.00911972   
     length 1.58651   
     axis 0 0 0   XYZ
    dof rx ry rz
    limits (-20.0 45.0)
           (-30.0 30.0)
           (-30.0 30.0)
  end
  begin
     id 15 
     name upperneck
     direction 0.149523 0.979068 -0.138086   
     length 1.57486   
     axis 0 0 0   XYZ
    dof rx ry rz
    limits (-20.0 45.0)
           (-30.0 30.0)
           (-30.0 30.0)
  end
  begin
     id 16
     name head
     direction 0.0445219 0.997708 -0.0509576  
     length 1.6019  
     axis 0 0 0   XYZ
    dof rx ry rz
    limits (-20.0 45.0)
           (-30.0 30.0)
           (-30.0 30.0)
  end
  begin
     id 17 
     name lclavicle
     direction 0.911271 0.381667 -0.154644  
     length 3.80848  
     axis 0 0 0   XYZ
    dof ry rz
    limits (-20.0 10.0)
           (0.0 20.0)
  end
  begin
     id 18 
     name lhumerus
     direction 1 -4.49003e-011 2.1308e-027   
     length 5.19069   
     axis 180 -30 -90   XYZ
    dof rx ry rz
    limits (-60.0 90.0)
           (-90.0 90.0)
           (-90.0 90.0)
  end
  begin
     id 19
     name lradius
     direction 1 -4.48914e-011 4.01554e-027   
     length 3.30016   
     axis 180 -30 -90   XYZ
    dof rx
    limits (-10.0 170.0)
  end
  begin
     id 20
     name lwrist
     direction 1 -4.49003e-011 1.1934e-026   
     length 1.65008   
     axis -8.46377e-015 90 90   XYZ
    dof ry
    limits (-180.0 0.0)
 end
  begin
     id 21 
     name lhand
     direction 1 -4.49034e-011 2.38659e-026   
     length 0.707698   
     axis -1.52313e-014 90 90   XYZ
    dof rx rz
    limits (-90.0 90.0)
           (-45.0 45.0)
  end
  begin
     id 22 
     name lfingers
     direction 1 -4.48691e-011 4.77775e-026   
     length 0.570564   
     axis -3.04623e-014 90 90   XYZ
    dof rx
    limits (0.0 90.0)
  end
  begin
     id 23
     name lthumb
     direction 0.707107 -6.34832e-011 0.707107   
     length 0.819219   
     axis -90 45 -1.62303e-014   XYZ
    dof rx rz
    limits (-45.0 45.0)
           (-45.0 45.0)
  end
  begin
     id 24 
     name rclavicle
     direction -0.815579 0.573708 -0.0754329   
     length 3.54371  
     axis 0 0 0   XYZ 
    dof ry rz
    limits (-10.0 20.0)
           (-20.0 0.0)
  end
  begin
     id 25 
     name rhumerus
     direction -1 -4.48956e-011 3.05351e-028  
     length 5.23924   
     axis 180 30 90   XYZ
    dof rx ry rz
    limits (-90.0 60.0)
           (-90.0 90.0)
           (-90.0 90.0)
  end
  begin
     id 26 
     name rradius
     direction -1 -4.49013e-011 3.53849e-027   
     length 3.32953   
     axis 180 30 90   XYZ
    dof rx
    limits (-10.0 170.0)
  end
  begin
     id 27 
     name rwrist
     direction -1 -4.48901e-011 1.19374e-026   
     length 1.66477   
     axis -8.46377e-015 -90 -90   XYZ
    dof ry
    limits (-180.0 0.0)
  end
  begin
     id 28
     name rhand
     direction -1 -4.48877e-011 2.38764e-026   
     length 0.607414   
     axis -1.52313e-014 -90 -90   XYZ
    dof rx rz
    limits (-90.0 90.0)
           (-45.0 45.0)
  end
  begin
     id 29
     name rfingers
     direction -1 -4.48882e-011 4.77521e-026   
     length 0.489712   
     axis -3.04623e-014 -90 -90   XYZ
    dof rx
    limits (0.0 90.0)
  end
  begin
     id 30
     name rthumb
     direction -0.707107 -6.34974e-011 0.707107   
     length 0.703132   
     axis -90 -45 1.62303e-014   XYZ
    dof rx rz
    limits (-45.0 45.0)
           (-45.0 45.0)
  end
:hierarchy
  begin
    root lhipjoint rhipjoint lowerback
    lhipjoint lfemur
    lfemur ltibia
    ltibia lfoot
    lfoot ltoes
    rhipjoint rfemur
    rfemur rtibia
    rtibia rfoot
    rfoot rtoes
    lowerback upperback
    upperback thorax
    thorax lowerneck lclavicle rclavicle
    lowerneck upperneck
    upperneck head
    lclavicle lhumerus
    lhumerus lradius
    lradius lwrist
    lwrist lhand lthumb
    lhand lfingers
    rclavicle rhumerus
    rhumerus rradius
    rradius rwrist
    rwrist rhand rthumb
    rhand rfingers
  end

#!OML:ASF E:\VariousWalksJay\Project 1\Capture day 1\Session 1\Actor2.ASF
:FULLY-SPECIFIED
:DEGREES
433
root 10.7669 17.3711 -13.5485 5.7523 -6.8056 -11.7669
lowerback -9.00536 4.32552 4.40423
upperback -0.93128 5.44986 -2.8904
thorax 4.76652 2.81616 -4.76328
lowerneck -0.241992 -12.5036 -13.9759
upperneck 2.4748 -17.3521 15.9544
head 3.41725 -8.60541 6.17725
rclavicle -2.45996e-014 1.59028e-014
rhumerus -1.6151 42.4006 -79.4955
rradius 99.4206
rwrist -10.1697
rhand -24.0572 14.1361
rfingers 7.12502
rthumb 2.42214 -15.8299
lclavicle -2.45996e-014 1.59028e-014
lhumerus -86.8912 -43.4159 98.5809
lradius 61.7252
lwrist 17.9992
lhand -6.60484 -19.7718
lfingers 7.12502
lthumb 19.2508 9.29537
rfemur 8.97821 -13.4046 37.2325
rtibia 23.0724
rfoot -11.287 -1.45994
rtoes -17.2261
lfemur -33.1855 2.64292 -10.9801
ltibia 27.8233
lfoot -19.1049 7.07448
ltoes -9.55448
434
root 10.753 17.3999 -13.4163 6.01108 -7.19524 -11.756
lowerback -9.21562 4.30874 4.36336
upperback -1.03504 5.42372 -2.90852
thorax 4.7697 2.79973 -4.75323
lowerneck -0.32003 -12.5065 -13.9954
upperneck 2.61056 -17.3705 16.0404
head 3.48307 -8.60829 6.19499
rclavicle -9.88954e-015 -1.27222e-014
rhumerus -1.6518 42.669 -79.4133
rradius 99.4179
rwrist -10.1326
rhand -24.0593 14.1379
rfingers 7.12502
rthumb 2.42012 -15.8281
lclavicle -9.88954e-015 -1.27222e-014
lhumerus -87.2089 -43.8304 98.7349
lradius 62.2325
lwrist 18.009
lhand -6.54716 -19.7256
lfingers 7.12502
lthumb 19.3063 9.33601
rfemur 9.04345 -13.1452 36.9693
rtibia 23.2409
rfoot -10.0987 -1.23129
rtoes -16.9551
lfemur -32.8996 2.57986 -10.9075
ltibia 27.9055
lfoot -19.1995 6.63276
ltoes -9.67932
435
root 10.7403 17.4265 -13.2828 6.25555 -7.59461 -11.7575
lowerback -9.41552 4.28964 4.33744
upperback -1.15163 5.39259 -2.91169
thorax 4.75281 2.78027 -4.73792
lowerneck -0.374855 -12.5018 -14.0086
upperneck 2.7343 -17.3795 16.119
head 3.53886 -8.60766 6.21268
rclavicle 4.33848e-014 0
rhumerus -1.82077 42.9139 -79.4259
rradius 99.4233
rwrist -10.0795
rhand -24.0641 14.1527
rfingers 7.12502
rthumb 2.41543 -15.8134
lclavicle 4.33848e-014 0
lhumerus -87.4932 -44.2273 98.9045
lradius 62.6781
lwrist 17.976
lhand -6.39112 -19.5944
lfingers 7.12502
lthumb 19.4563 9.45217
rfemur 9.05626 -12.8444 36.7089
rtibia 23.5309
rfoot -8.89256 -1.02799
rtoes -16.6281
lfemur -32.5918 2.4794 -10.8297
ltibia 27.9949
lfoot -19.3311 6.2183
ltoes -9.89693
436
root 10.729 17.4507 -13.149 6.47257 -8.00681 -11.7652
lowerback -9.58727 4.26306 4.31928
upperback -1.25402 5.35104 -2.89756
thorax 4.73282 2.75591 -4.71182
lowerneck -0.493211 -12.4996 -14.0188
upperneck 2.86442 -17.3854 16.1941
head 3.60604 -8.6023 6.22477
rclavicle 8.4732e-015 -1.90833e-014
rhumerus -2.05291 43.1322 -79.49
rradius 99.4256
rwrist -10.0159
rhand -24.0632 14.1821
rfingers 7.12502
rthumb 2.41629 -15.784
lclavicle 8.4732e-015 -1.90833e-014
lhumerus -87.6613 -44.6033 99.0497
lradius 63.0446
lwrist 17.9169
lhand -6.14924 -19.4028
lfingers 7.12502
lthumb 19.6889 9.62009
rfemur 9.00886 -12.5015 36.4425
rtibia 23.9752
rfoot -7.67388 -0.855613
rtoes -16.2598
lfemur -32.2586 2.37251 -10.7574
ltibia 28.1013
lfoot -19.4876 5.8788
ltoes -10.1512
437
root 10.7189 17.4723 -13.016 6.64223 -8.42959 -11.7803
lowerback -9.71529 4.23149 4.31117
upperback -1.34811 5.3027 -2.8678
thorax 4.69576 2.72815 -4.67865
lowerneck -0.589884 -12.4916 -14.0281
upperneck 2.96588 -17.3833 16.2767
head 3.66064 -8.59421 6.24218
rclavicle 6.80837e-014 -2.8625e-014
rhumerus -2.41176 43.3138 -79.6552
rradius 99.4197
rwrist -9.93436
rhand -24.0623 14.2181
rfingers 7.12502
rthumb 2.41719 -15.7479
lclavicle 6.80837e-014 -2.8625e-014
lhumerus -87.7413 -44.9629 99.1974
lradius 63.3234
lwrist 17.8346
lhand -5.9396 -19.2395
lfingers 7.12502
lthumb 19.8904 9.76263
rfemur 8.90083 -12.1203 36.172
rtibia 24.6051
rfoot -6.44303 -0.727352
rtoes -15.8633
lfemur -31.8899 2.29655 -10.694
ltibia 28.2342
lfoot -19.6474 5.64007
ltoes -10.4016
438
root 10.7099 17.491 -12.8848 6.75118 -8.86564 -11.7977
lowerback -9.76495 4.18946 4.30783
upperback -1.42431 5.24231 -2.82451
thorax 4.6316 2.6944 -4.64028
lowerneck -0.7038 -12.481 -14.0423
upperneck 3.05678 -17.3762 16.3763
head 3.71632 -8.5826 6.26516
rclavicle 9.51682e-015 -2.8625e-014
rhumerus -2.8794 43.4592 -79.9197
rradius 99.3958
rwrist -9.84119
rhand -24.0681 14.2458
rfingers 7.12502
rthumb 2.41156 -15.7203
lclavicle 9.51682e-015 -2.8625e-014
lhumerus -87.6856 -45.2966 99.3106
lradius 63.5077
lwrist 17.7283
lhand -5.76166 -19.1202
lfingers 7.12502
lthumb 20.0615 9.86406
rfemur 8.72563 -11.7072 35.8921
rtibia 25.4512
rfoot -5.19943 -0.640518
rtoes -15.3864
lfemur -31.4808 2.3023 -10.6527
ltibia 28.4029
lfoot -19.7985 5.51139
ltoes -10.6077
439
root 10.7017 17.5069 -12.7563 6.79224 -9.30716 -11.8067
lowerback -9.73362 4.13156 4.29523
upperback -1.47424 5.16456 -2.77211
thorax 4.5464 2.65215 -4.59401
lowerneck -0.82708 -12.4674 -14.0597
upperneck 3.13094 -17.3642 16.5001
head 3.77056 -8.56792 6.29637
rclavicle -1.50269e-014 -3.65764e-014
rhumerus -3.44516 43.5579 -80.2861
rradius 99.3392
rwrist -9.73367
rhand -24.0752 14.2317
rfingers 7.12502
rthumb 2.40474 -15.7345
lclavicle -1.50269e-014 -3.65764e-014
lhumerus -87.4676 -45.6079 99.3725
lradius 63.5892
lwrist 17.6101
lhand -5.56633 -19.0047
lfingers 7.12502
lthumb 20.2492 9.95984
rfemur 8.46994 -11.2725 35.5984
rtibia 26.5379
rfoot -3.95383 -0.608412
rtoes -14.8709
lfemur -31.0316 2.41137 -10.6445
ltibia 28.6146
lfoot -19.9412 5.50143
ltoes -10.7559
440
root 10.6939 17.5194 -12.6312 6.76047 -9.75277 -11.8023
lowerback -9.62222 4.05476 4.26481
upperback -1.49319 5.06645 -2.71345
thorax 4.44492 2.59999 -4.53803
lowerneck -0.9356 -12.4476 -14.0795
upperneck 3.17853 -17.345 16.6548
head 3.81664 -8.55027 6.33988
rclavicle -5.94987e-014 -3.18055e-015
rhumerus -4.10664 43.6035 -80.7588
rradius 99.2323
rwrist -9.60447
rhand -24.0772 14.2036
rfingers 7.12502
rthumb 2.40277 -15.7626
lclavicle -5.94987e-014 -3.18055e-015
lhumerus -87.0669 -45.8915 99.3604
lradius 63.5669
lwrist 17.4723
lhand -5.47529 -18.9835
lfingers 7.12502
lthumb 20.3367 9.97171
rfemur 8.12461 -10.8179 35.292
rtibia 27.8847
rfoot -2.71815 -0.636048
rtoes -14.3639
lfemur -30.5427 2.64945 -10.6755
ltibia 28.874
lfoot -20.0665 5.61069
ltoes -10.8225
441
root 10.6864 17.5285 -12.5093 6.65025 -10.1969 -11.7672
lowerback -9.42748 3.95367 4.20036
upperback -1.48051 4.9428 -2.65704
thorax 4.32501 2.53514 -4.47275
lowerneck -1.03104 -12.4233 -14.0907
upperneck 3.21141 -17.3214 16.8256
head 3.85635 -8.53086 6.389
rclavicle -9.48576e-015 4.77083e-015
rhumerus -4.85266 43.5949 -81.3363
rradius 99.0624
rwrist -9.47742
rhand -24.0691 14.1421
rfingers 7.12502
rthumb 2.41067 -15.824
lclavicle -9.48576e-015 4.77083e-015
lhumerus -86.473 -46.1433 99.2557
lradius 63.4385
lwrist 17.308
lhand -5.46289 -19.0601
lfingers 7.12502
lthumb 20.3486 9.89388
rfemur 7.68692 -10.3471 34.9602
rtibia 29.5017
rfoot -1.50795 -0.724865
rtoes -13.8817
lfemur -30.0114 3.01721 -10.7602
ltibia 29.1804
lfoot -20.178 5.81916
ltoes -10.7912
